<svg id="Capa_1" enable-background="new 0 0 512 512" height="512" viewBox="0 0 512 512" width="512" xmlns="http://www.w3.org/2000/svg" xmlns:xlink="http://www.w3.org/1999/xlink"><linearGradient id="SVGID_1_" gradientUnits="userSpaceOnUse" x1="108.125" x2="406.444" y1="472.102" y2="173.783"><stop offset="0" stop-color="#fff" stop-opacity="0"/><stop offset=".2617" stop-color="#ededff" stop-opacity=".416"/><stop offset=".629" stop-color="#d8d8ff"/></linearGradient><linearGradient id="SVGID_00000173132264763453243860000000958740553666172327_" gradientUnits="userSpaceOnUse" x1="256" x2="256" y1="459.096" y2="60.816"><stop offset="0" stop-color="#ff4d4d" stop-opacity=".4"/><stop offset=".1463" stop-color="#ff4d4d" stop-opacity=".342"/><stop offset="1" stop-color="#ff4d4d" stop-opacity="0"/></linearGradient><g><g><path d="m364.823 64.311c-69.098-27.035-164.784-16.764-217.662 31.51-37.336 34.085-8.439 43.8 17.016 106.17 18.423 45.14-164.177 38.927-164.177 120.495 0 94.299 132.251 76.424 181.329 87.218 75.036 16.504 140.496 78.242 220.668 70.103 69.795-7.086 96.403-61.855 106.109-124.642 18.082-116.976-26.329-245.094-143.283-290.854z" fill="url(#SVGID_1_)"/></g><g><g><g><g><g><g><g><path d="m385.955 145.572c-4.183-47.537-44.092-84.82-92.715-84.82-31.26 0-58.919 15.41-75.8 39.047-28.086.833-52.217 17.404-63.882 41.199-28.477.895-51.291 24.246-51.291 52.94 0 29.262 23.721 52.983 52.983 52.983h209.077c29.262 0 52.983-23.721 52.983-52.983 0-21.556-12.879-40.091-31.355-48.366z" fill="#b2b2ff"/><path d="m155.25 226.92c-18.187 0-32.983-14.796-32.983-32.983 0-17.914 14.021-32.387 31.92-32.95l12.031-.378 5.298-10.808c8.786-17.921 26.61-29.421 46.517-30.011l9.917-.294 5.766-8.074c13.716-19.205 35.968-30.67 59.524-30.67 18.389 0 35.96 6.854 49.476 19.297 13.442 12.375 21.722 29.165 23.316 47.276l1.029 11.7 10.719 4.8c11.864 5.313 19.53 17.133 19.53 30.112 0 18.187-14.796 32.983-32.983 32.983z" fill="#9393ff"/><g><g><path d="m337.59 149.024h-14.98c-2.762 0-5-2.239-5-5s2.238-5 5-5h14.98c2.762 0 5 2.239 5 5s-2.238 5-5 5z" fill="#fff"/></g><g><path d="m337.59 166.836h-30.242c-2.762 0-5-2.239-5-5s2.238-5 5-5h30.242c2.762 0 5 2.239 5 5s-2.238 5-5 5z" fill="#fff"/></g></g></g></g></g></g><g><g><g><g><g><g><g><path d="m347.546 219.099h-104.084v-29.221h97.2c3.802 0 6.884 3.082 6.884 6.884z" fill="#ff6c6c"/></g><g><g><g><g><path d="m256 381.636c-2.762 0-5-2.239-5-5v-35.94c0-2.761 2.238-5 5-5s5 2.239 5 5v35.94c0 2.761-2.238 5-5 5z" fill="#b2b2ff"/></g><g><path d="m260.824 208.252-11.453-19.154c-1.243-2.079-3.487-3.351-5.908-3.351h-54.841l-12.288 154.948h171.62c3.802 0 6.884-3.082 6.884-6.884v-118.675c0-3.802-3.082-6.884-6.884-6.884z" fill="#ffc498"/></g><g><g><path d="m234.999 302.611h-14.979c-2.762 0-5-2.239-5-5s2.238-5 5-5h14.979c2.762 0 5 2.239 5 5s-2.238 5-5 5z" fill="#ff6c6c"/></g><g><path d="m256.261 320.423h-36.241c-2.762 0-5-2.239-5-5s2.238-5 5-5h36.241c2.762 0 5 2.239 5 5s-2.239 5-5 5z" fill="#ff6c6c"/></g></g></g><path d="m176.334 340.695c-10.588 0-19.172-8.583-19.172-19.172v-128.891c0-3.802 3.082-6.884 6.884-6.884h24.575c3.802 0 6.884 3.082 6.884 6.884v128.892c.001 10.588-8.583 19.171-19.171 19.171z" fill="#ff9c33"/></g><path d="m334.071 322.327h-44.345c-1.901 0-3.442-1.541-3.442-3.442v-27.502c0-1.901 1.541-3.442 3.442-3.442h44.345c1.901 0 3.442 1.541 3.442 3.442v27.502c0 1.901-1.541 3.442-3.442 3.442z" fill="#ffe7db"/></g></g></g></g><g><g><path d="m301.162 237.859c-2.762 0-5-2.239-5-5v-.115c0-2.761 2.238-5 5-5s5 2.239 5 5v.115c0 2.762-2.238 5-5 5z" fill="#fff"/></g><g><path d="m316.838 237.859c-2.762 0-5-2.239-5-5v-.115c0-2.761 2.238-5 5-5s5 2.239 5 5v.115c0 2.762-2.238 5-5 5z" fill="#fff"/></g><g><path d="m332.514 237.859c-2.762 0-5-2.239-5-5v-.115c0-2.761 2.238-5 5-5s5 2.239 5 5v.115c0 2.762-2.239 5-5 5z" fill="#fff"/></g></g></g></g><g><g><g><path d="m144.296 424.038h-26.939c-2.762 0-5-2.239-5-5s2.238-5 5-5h26.939c2.762 0 5 2.239 5 5s-2.238 5-5 5z" fill="#b2b2ff"/></g><path d="m112.356 461.441h-55.235c-2.761 0-5-2.239-5-5v-74.805c0-2.761 2.239-5 5-5h55.235c2.761 0 5 2.239 5 5v74.805c0 2.761-2.239 5-5 5z" fill="#d8d8ff"/><g><g><g><path d="m76.846 404.308c-2.762 0-5-2.239-5-5v-.115c0-2.761 2.238-5 5-5s5 2.239 5 5v.115c0 2.761-2.239 5-5 5z" fill="#fa6"/></g><g><path d="m92.631 404.308c-2.762 0-5-2.239-5-5v-.115c0-2.761 2.238-5 5-5s5 2.239 5 5v.115c0 2.761-2.238 5-5 5z" fill="#fa6"/></g></g><g><g><path d="m99.376 427.011h-29.275c-2.762 0-5-2.239-5-5s2.238-5 5-5h29.275c2.762 0 5 2.239 5 5s-2.238 5-5 5z" fill="#8282ff"/></g><g><path d="m99.376 443.884h-29.275c-2.762 0-5-2.239-5-5s2.238-5 5-5h29.275c2.762 0 5 2.239 5 5s-2.238 5-5 5z" fill="#8282ff"/></g></g></g></g><g><g><path d="m231.53 424.038h-22c-2.762 0-5-2.239-5-5s2.238-5 5-5h22c2.762 0 5 2.239 5 5s-2.238 5-5 5z" fill="#b2b2ff"/></g><path d="m204.53 461.441h-55.235c-2.761 0-5-2.239-5-5v-74.805c0-2.761 2.239-5 5-5h55.235c2.761 0 5 2.239 5 5v74.805c0 2.761-2.238 5-5 5z" fill="#d8d8ff"/><g><g><g><path d="m169.021 404.308c-2.762 0-5-2.239-5-5v-.115c0-2.761 2.238-5 5-5s5 2.239 5 5v.115c0 2.761-2.239 5-5 5z" fill="#fa6"/></g><g><path d="m184.806 404.308c-2.762 0-5-2.239-5-5v-.115c0-2.761 2.238-5 5-5s5 2.239 5 5v.115c0 2.761-2.239 5-5 5z" fill="#fa6"/></g></g><g><g><path d="m191.551 427.011h-29.275c-2.762 0-5-2.239-5-5s2.238-5 5-5h29.275c2.762 0 5 2.239 5 5s-2.239 5-5 5z" fill="#8282ff"/></g><g><path d="m191.551 443.884h-29.275c-2.762 0-5-2.239-5-5s2.238-5 5-5h29.275c2.762 0 5 2.239 5 5s-2.239 5-5 5z" fill="#8282ff"/></g></g></g></g><g><g><path d="m302.47 424.038h-22c-2.762 0-5-2.239-5-5s2.238-5 5-5h22c2.762 0 5 2.239 5 5s-2.239 5-5 5z" fill="#b2b2ff"/></g><g><path d="m394.644 424.038h-26.939c-2.762 0-5-2.239-5-5s2.238-5 5-5h26.939c2.762 0 5 2.239 5 5s-2.239 5-5 5z" fill="#b2b2ff"/></g><path d="m362.705 461.441h-55.235c-2.761 0-5-2.239-5-5v-74.805c0-2.761 2.239-5 5-5h55.235c2.761 0 5 2.239 5 5v74.805c0 2.761-2.239 5-5 5z" fill="#d8d8ff"/><g><g><g><path d="m327.194 404.308c-2.762 0-5-2.239-5-5v-.115c0-2.761 2.238-5 5-5s5 2.239 5 5v.115c0 2.761-2.238 5-5 5z" fill="#fa6"/></g><g><path d="m342.979 404.308c-2.762 0-5-2.239-5-5v-.115c0-2.761 2.238-5 5-5s5 2.239 5 5v.115c0 2.761-2.238 5-5 5z" fill="#fa6"/></g></g><g><g><path d="m349.725 427.011h-29.275c-2.762 0-5-2.239-5-5s2.238-5 5-5h29.275c2.762 0 5 2.239 5 5s-2.239 5-5 5z" fill="#8282ff"/></g><g><path d="m349.725 443.884h-29.275c-2.762 0-5-2.239-5-5s2.238-5 5-5h29.275c2.762 0 5 2.239 5 5s-2.239 5-5 5z" fill="#8282ff"/></g></g></g></g><g><path d="m454.879 461.441h-55.235c-2.761 0-5-2.239-5-5v-74.805c0-2.761 2.239-5 5-5h55.235c2.761 0 5 2.239 5 5v74.805c0 2.761-2.239 5-5 5z" fill="#d8d8ff"/><g><g><g><path d="m419.369 404.308c-2.762 0-5-2.239-5-5v-.115c0-2.761 2.238-5 5-5s5 2.239 5 5v.115c0 2.761-2.238 5-5 5z" fill="#fa6"/></g><g><path d="m435.154 404.308c-2.762 0-5-2.239-5-5v-.115c0-2.761 2.238-5 5-5s5 2.239 5 5v.115c0 2.761-2.238 5-5 5z" fill="#fa6"/></g></g><g><g><path d="m441.899 427.011h-29.275c-2.762 0-5-2.239-5-5s2.238-5 5-5h29.275c2.762 0 5 2.239 5 5s-2.238 5-5 5z" fill="#8282ff"/></g><g><path d="m441.899 443.884h-29.275c-2.762 0-5-2.239-5-5s2.238-5 5-5h29.275c2.762 0 5 2.239 5 5s-2.238 5-5 5z" fill="#8282ff"/></g></g></g></g></g><path d="m267.335 407.703v-26.067c0-2.761-2.239-5-5-5h-12.67c-2.761 0-5 2.239-5 5v26.067h-8.135c-2.761 0-5 2.239-5 5v12.671c0 2.761 2.239 5 5 5h38.939c2.761 0 5-2.239 5-5v-12.671c0-2.761-2.239-5-5-5z" fill="#ff6c6c"/><path d="m454.879 376.636h-55.235c-2.761 0-5 2.239-5 5v32.403h-26.939v-32.403c0-2.761-2.239-5-5-5h-55.235c-2.761 0-5 2.239-5 5v32.403h-22v-1.335c0-2.761-2.239-5-5-5h-8.135v-26.067c0-2.761-2.239-5-5-5h-1.335v-35.94h86.954c3.802 0 6.884-3.082 6.884-6.884v-86.893h9.489c29.262 0 52.983-23.721 52.983-52.983 0-21.555-12.879-40.09-31.356-48.365-4.183-47.537-44.091-84.82-92.715-84.82-31.26 0-58.919 15.41-75.8 39.047-28.086.833-52.217 17.404-63.882 41.199-28.477.895-51.291 24.246-51.291 52.94 0 29.262 23.721 52.983 52.983 52.983h1.912v74.604c0 10.588 8.583 19.172 19.172 19.172h74.667v35.94h-1.335c-2.761 0-5 2.239-5 5v26.067h-8.135c-2.761 0-5 2.239-5 5v1.335h-22v-32.403c0-2.761-2.239-5-5-5h-55.235c-2.761 0-5 2.239-5 5v32.403h-26.939v-32.403c0-2.761-2.239-5-5-5h-55.235c-2.761 0-5 2.239-5 5v74.805c0 2.761 2.239 5 5 5h55.235c2.761 0 5-2.239 5-5v-32.403h26.939v32.403c0 2.761 2.239 5 5 5h55.235c2.761 0 5-2.239 5-5v-32.403h22v1.335c0 2.761 2.239 5 5 5h38.939c2.761 0 5-2.239 5-5v-1.335h22v32.403c0 2.761 2.239 5 5 5h55.235c2.761 0 5-2.239 5-5v-32.403h26.939v32.403c0 2.761 2.239 5 5 5h55.235c2.761 0 5-2.239 5-5v-74.805c.001-2.762-2.238-5-4.999-5z" fill="url(#SVGID_00000173132264763453243860000000958740553666172327_)"/></g></g></g><g><path d="m402.124 62.458c-2.762 0-5-2.239-5-5 0-3.033-2.468-5.5-5.5-5.5-2.762 0-5-2.239-5-5s2.238-5 5-5c3.032 0 5.5-2.467 5.5-5.5 0-2.761 2.238-5 5-5s5 2.239 5 5c0 3.033 2.468 5.5 5.5 5.5 2.762 0 5 2.239 5 5s-2.238 5-5 5c-3.032 0-5.5 2.467-5.5 5.5 0 2.761-2.238 5-5 5z" fill="#ff9c33"/></g><g><path d="m99.376 323.781c-2.762 0-5-2.239-5-5 0-3.033-2.468-5.5-5.5-5.5-2.762 0-5-2.239-5-5s2.238-5 5-5c3.032 0 5.5-2.467 5.5-5.5 0-2.761 2.238-5 5-5s5 2.239 5 5c0 3.033 2.468 5.5 5.5 5.5 2.762 0 5 2.239 5 5s-2.238 5-5 5c-3.032 0-5.5 2.467-5.5 5.5 0 2.762-2.238 5-5 5z" fill="#ff6c6c"/></g><g><path d="m450.399 234.599c-2.762 0-5-2.239-5-5 0-3.033-2.468-5.5-5.5-5.5-2.762 0-5-2.239-5-5s2.238-5 5-5c3.032 0 5.5-2.467 5.5-5.5 0-2.761 2.238-5 5-5s5 2.239 5 5c0 3.033 2.468 5.5 5.5 5.5 2.762 0 5 2.239 5 5s-2.238 5-5 5c-3.032 0-5.5 2.467-5.5 5.5 0 2.761-2.238 5-5 5z" fill="#6c6cff"/></g><g><path d="m391.187 350.695c-1.279 0-2.56-.488-3.535-1.464-1.953-1.953-1.953-5.119 0-7.071l10-10c1.951-1.952 5.119-1.952 7.07 0 1.953 1.953 1.953 5.119 0 7.071l-10 10c-.976.976-2.256 1.464-3.535 1.464z" fill="#ff6c6c"/></g><g><path d="m71.846 257.22c-1.279 0-2.56-.488-3.535-1.464-1.953-1.953-1.953-5.119 0-7.071l10-10c1.951-1.952 5.119-1.952 7.07 0 1.953 1.953 1.953 5.119 0 7.071l-10 10c-.976.976-2.256 1.464-3.535 1.464z" fill="#ff9c33"/></g></g></g></svg>