<svg id="Capa_1" enable-background="new 0 0 512 512" height="512" viewBox="0 0 512 512" width="512" xmlns="http://www.w3.org/2000/svg" xmlns:xlink="http://www.w3.org/1999/xlink"><linearGradient id="SVGID_1_" gradientUnits="userSpaceOnUse" x1="142.695" x2="483.152" y1="378.735" y2="38.277"><stop offset="0" stop-color="#ffd9d9" stop-opacity="0"/><stop offset=".9981" stop-color="#ffb3b3"/></linearGradient><linearGradient id="SVGID_2_" gradientUnits="userSpaceOnUse" x1="256" x2="256" y1="460.628" y2="27.372"><stop offset="0" stop-color="#ff4d4d" stop-opacity=".4"/><stop offset=".1463" stop-color="#ff4d4d" stop-opacity=".342"/><stop offset="1" stop-color="#ff4d4d" stop-opacity="0"/></linearGradient><g><g><g><path d="m332.949 41.432c-97.53 113.013-309.476-10.595-316.362 175.275-3.867 104.373 121.584 55.246 165.606 137.647 23.897 44.73 51.823 135.936 98.185 151.902 100.806 34.714 177.807-94.839 92.577-202.577-16.644-21.04-14.321-45.002 3.756-66.084 28.335-33.047 72.817-48.519 97.081-83.61 72.103-104.28-51.061-216.588-140.843-112.553z" fill="url(#SVGID_1_)"/></g><g><g><g><g><g><path d="m332.29 234.862c36.509 0 66.106-29.596 66.106-66.106 0-34.74-26.803-63.2-60.855-65.879-3.204-42.234-38.487-75.505-81.541-75.505s-78.337 33.271-81.541 75.505c-34.052 2.679-60.855 31.139-60.855 65.879 0 36.509 29.596 66.106 66.106 66.106z" fill="#b3b3ff"/><path d="m311.156 234.862c26.395 0 47.793-20.813 47.793-46.486 0-24.43-19.378-44.443-43.997-46.327-2.316-29.699-27.825-53.096-58.952-53.096s-56.636 23.397-58.952 53.096c-24.619 1.884-43.997 21.898-43.997 46.327 0 25.674 21.398 46.486 47.793 46.486z" fill="#d9d9ff"/></g></g><g><g><path d="m325.869 344.956h-139.738c-5.523 0-10-4.477-10-10v-150.775c0-5.523 4.477-10 10-10h139.737c5.523 0 10 4.477 10 10v150.775c.001 5.523-4.476 10-9.999 10z" fill="#fff"/><path d="m310.141 293.739h-107.665c-2.761 0-5-2.239-5-5 0-2.761 2.239-5 5-5h107.666c2.761 0 5 2.239 5 5-.001 2.761-2.239 5-5.001 5z" fill="#9494ff"/></g><path d="m310.141 230.299h-107.665c-2.761 0-5-2.239-5-5v-29.192c0-2.761 2.239-5 5-5h107.666c2.761 0 5 2.239 5 5v29.192c-.001 2.761-2.239 5-5.001 5z" fill="#9494ff"/><g><path d="m310.141 252.262h-53.028c-2.761 0-5-2.239-5-5 0-2.761 2.239-5 5-5h53.028c2.761 0 5 2.239 5 5 0 2.761-2.238 5-5 5z" fill="#ffab66"/><g><path d="m310.141 270h-53.028c-2.761 0-5-2.239-5-5 0-2.761 2.239-5 5-5h53.028c2.761 0 5 2.239 5 5 0 2.762-2.238 5-5 5z" fill="#ffab66"/></g></g><g fill="#fff"><circle cx="300.347" cy="204.698" r="5"/><circle cx="282.644" cy="204.698" r="5"/><circle cx="264.942" cy="204.698" r="5"/></g></g><g><g><g><g><g><path d="m382.435 318.758v131.87c0 5.53-4.47 10-10 10h-234.87c-5.52 0-10-4.47-10-10v-162.49c0-5.52 4.48-10 10-10h76.22c2.7 0 5.29 1.1 7.17 3.04l26.81 27.58h124.67c5.53 0 10 4.47 10 10z" fill="#ffab66"/></g><g><path d="m221.751 413.303h-53.028c-2.761 0-5-2.239-5-5 0-2.761 2.239-5 5-5h53.028c2.761 0 5 2.239 5 5 0 2.761-2.239 5-5 5z" fill="#ff8b00"/><g><path d="m221.751 431.041h-53.028c-2.761 0-5-2.239-5-5 0-2.761 2.239-5 5-5h53.028c2.761 0 5 2.239 5 5 0 2.761-2.239 5-5 5z" fill="#ff8b00"/></g></g></g><path d="m352.598 432.481h-80.782c-2.761 0-5-2.239-5-5v-40.912c0-2.761 2.239-5 5-5h80.782c2.761 0 5 2.239 5 5v40.912c0 2.761-2.238 5-5 5z" fill="#ffe8dc"/></g></g></g></g><g><g fill="#4d4dff"><path d="m104.752 297.522c-1.279 0-2.56-.488-3.535-1.465l-7.061-7.06-7.061 7.06c-1.951 1.953-5.119 1.953-7.07 0-1.953-1.952-1.953-5.118 0-7.07l10.596-10.596c1.951-1.953 5.119-1.953 7.07 0l10.596 10.596c1.953 1.952 1.953 5.118 0 7.07-.975.977-2.256 1.465-3.535 1.465z"/><path d="m104.752 269.866c-1.279 0-2.56-.488-3.535-1.465l-7.061-7.06-7.061 7.06c-1.951 1.953-5.119 1.953-7.07 0-1.953-1.952-1.953-5.118 0-7.07l10.596-10.596c1.951-1.953 5.119-1.953 7.07 0l10.596 10.596c1.953 1.952 1.953 5.118 0 7.07-.975.977-2.256 1.465-3.535 1.465z"/><path d="m104.752 242.211c-1.279 0-2.56-.488-3.535-1.465l-7.061-7.06-7.061 7.06c-1.951 1.953-5.119 1.953-7.07 0-1.953-1.952-1.953-5.118 0-7.07l10.596-10.596c1.951-1.953 5.119-1.953 7.07 0l10.596 10.596c1.953 1.952 1.953 5.118 0 7.07-.975.977-2.256 1.465-3.535 1.465z"/></g><g><path d="m417.844 242.211c-1.279 0-2.56-.488-3.535-1.465l-10.596-10.596c-1.953-1.952-1.953-5.118 0-7.07 1.951-1.953 5.119-1.953 7.07 0l7.061 7.06 7.061-7.06c1.951-1.953 5.119-1.953 7.07 0 1.953 1.952 1.953 5.118 0 7.07l-10.596 10.596c-.976.977-2.256 1.465-3.535 1.465z" fill="#ff6c6c"/><g><path d="m417.844 269.866c-1.279 0-2.56-.488-3.535-1.465l-10.596-10.596c-1.953-1.952-1.953-5.118 0-7.07 1.951-1.953 5.119-1.953 7.07 0l7.061 7.06 7.061-7.06c1.951-1.953 5.119-1.953 7.07 0 1.953 1.952 1.953 5.118 0 7.07l-10.596 10.596c-.976.977-2.256 1.465-3.535 1.465z" fill="#ff6c6c"/></g><path d="m417.844 297.522c-1.279 0-2.56-.488-3.535-1.465l-10.596-10.596c-1.953-1.952-1.953-5.118 0-7.07 1.951-1.953 5.119-1.953 7.07 0l7.061 7.06 7.061-7.06c1.951-1.953 5.119-1.953 7.07 0 1.953 1.952 1.953 5.118 0 7.07l-10.596 10.596c-.976.977-2.256 1.465-3.535 1.465z" fill="#ff6c6c"/></g></g></g><path d="m85.6 384.888c-2.762 0-5-2.238-5-5 0-3.032-2.468-5.5-5.5-5.5-2.762 0-5-2.238-5-5s2.238-5 5-5c3.032 0 5.5-2.468 5.5-5.5 0-2.762 2.238-5 5-5s5 2.238 5 5c0 3.032 2.468 5.5 5.5 5.5 2.762 0 5 2.238 5 5s-2.238 5-5 5c-3.032 0-5.5 2.468-5.5 5.5 0 2.761-2.239 5-5 5z" fill="#ff6c6c"/><path d="m426.677 360.593c-2.762 0-5-2.238-5-5 0-3.032-2.468-5.5-5.5-5.5-2.762 0-5-2.238-5-5s2.238-5 5-5c3.032 0 5.5-2.468 5.5-5.5 0-2.762 2.238-5 5-5s5 2.238 5 5c0 3.032 2.468 5.5 5.5 5.5 2.762 0 5 2.238 5 5s-2.238 5-5 5c-3.032 0-5.5 2.468-5.5 5.5 0 2.761-2.239 5-5 5z" fill="#ff6c6c"/><path d="m454.414 189.682c-2.762 0-5-2.238-5-5 0-3.032-2.468-5.5-5.501-5.5-2.762 0-5-2.238-5-5s2.238-5 5-5c3.033 0 5.501-2.468 5.501-5.5 0-2.762 2.238-5 5-5s5 2.238 5 5c0 3.032 2.467 5.5 5.499 5.5 2.762 0 5 2.238 5 5s-2.238 5-5 5c-3.032 0-5.499 2.468-5.499 5.5 0 2.761-2.238 5-5 5z" fill="#6c6cff"/><path d="m46.774 337.862c-1.279 0-2.56-.488-3.535-1.465-1.953-1.952-1.953-5.118 0-7.07l10-10c1.951-1.953 5.119-1.953 7.07 0 1.953 1.952 1.953 5.118 0 7.07l-10 10c-.975.977-2.255 1.465-3.535 1.465z" fill="#ff9d33"/><path d="m367.764 74.508c-1.279 0-2.56-.488-3.535-1.465-1.953-1.952-1.953-5.118 0-7.07l10-10c1.951-1.953 5.119-1.953 7.07 0 1.953 1.952 1.953 5.118 0 7.07l-10 10c-.976.977-2.256 1.465-3.535 1.465z" fill="#ff6c6c"/></g></g><path d="m372.435 308.758h-36.566v-73.996c34.845-1.859 62.527-30.698 62.527-66.006 0-34.74-26.803-63.2-60.855-65.879-3.204-42.234-38.487-75.505-81.541-75.505s-78.337 33.271-81.541 75.505c-34.052 2.679-60.855 31.139-60.855 65.879 0 35.308 27.683 64.147 62.527 66.006v43.376h-38.566c-5.52 0-10 4.48-10 10v162.49c0 5.53 4.48 10 10 10h234.87c5.53 0 10-4.47 10-10v-131.87c0-5.53-4.47-10-10-10z" fill="url(#SVGID_2_)"/></g></svg>